<mxfile host="65bd71144e">
    <diagram id="MQqcLUlsIK5Tfdd7eNyr" name="Page-1">
        <mxGraphModel dx="892" dy="530" grid="1" gridSize="10" guides="1" tooltips="1" connect="1" arrows="1" fold="1" page="1" pageScale="1" pageWidth="827" pageHeight="1169" math="0" shadow="0">
            <root>
                <mxCell id="0"/>
                <mxCell id="1" parent="0"/>
                <mxCell id="3" value="" style="endArrow=none;dashed=1;html=1;" edge="1" parent="1">
                    <mxGeometry width="50" height="50" relative="1" as="geometry">
                        <mxPoint x="81" y="250" as="sourcePoint"/>
                        <mxPoint x="641" y="250" as="targetPoint"/>
                    </mxGeometry>
                </mxCell>
                <mxCell id="5" value="ODS" style="text;html=1;strokeColor=none;fillColor=none;align=center;verticalAlign=middle;whiteSpace=wrap;rounded=0;" vertex="1" parent="1">
                    <mxGeometry x="80" y="446" width="60" height="30" as="geometry"/>
                </mxCell>
                <mxCell id="6" value="DWD" style="text;html=1;strokeColor=none;fillColor=none;align=center;verticalAlign=middle;whiteSpace=wrap;rounded=0;" vertex="1" parent="1">
                    <mxGeometry x="80" y="396" width="60" height="30" as="geometry"/>
                </mxCell>
                <mxCell id="7" value="" style="endArrow=none;dashed=1;html=1;" edge="1" parent="1">
                    <mxGeometry width="50" height="50" relative="1" as="geometry">
                        <mxPoint x="80" y="310" as="sourcePoint"/>
                        <mxPoint x="640" y="310" as="targetPoint"/>
                    </mxGeometry>
                </mxCell>
                <mxCell id="8" value="" style="endArrow=none;dashed=1;html=1;" edge="1" parent="1">
                    <mxGeometry width="50" height="50" relative="1" as="geometry">
                        <mxPoint x="80" y="476" as="sourcePoint"/>
                        <mxPoint x="640" y="476" as="targetPoint"/>
                    </mxGeometry>
                </mxCell>
                <mxCell id="9" value="" style="endArrow=none;dashed=1;html=1;" edge="1" parent="1">
                    <mxGeometry width="50" height="50" relative="1" as="geometry">
                        <mxPoint x="80" y="426" as="sourcePoint"/>
                        <mxPoint x="640" y="426" as="targetPoint"/>
                    </mxGeometry>
                </mxCell>
                <mxCell id="10" value="DWS" style="text;html=1;strokeColor=none;fillColor=none;align=center;verticalAlign=middle;whiteSpace=wrap;rounded=0;" vertex="1" parent="1">
                    <mxGeometry x="80" y="280" width="60" height="30" as="geometry"/>
                </mxCell>
                <mxCell id="11" value="DM" style="text;html=1;strokeColor=none;fillColor=none;align=center;verticalAlign=middle;whiteSpace=wrap;rounded=0;" vertex="1" parent="1">
                    <mxGeometry x="80" y="210" width="60" height="30" as="geometry"/>
                </mxCell>
                <mxCell id="12" value="dwd_etrade_transaction_dt&lt;br&gt;dwd_etrade_refund_dt&lt;br&gt;dwd_etrade_chargeback_dt&lt;br&gt;dwd_etrade_manualreview_dt" style="rounded=0;whiteSpace=wrap;html=1;" vertex="1" parent="1">
                    <mxGeometry x="135" y="356" width="175" height="70" as="geometry"/>
                </mxCell>
                <mxCell id="13" value="&lt;span&gt;dwd_epay_transaction_dt&lt;/span&gt;&lt;br&gt;&lt;span&gt;dwd_epay_refund_dt&lt;/span&gt;&lt;br&gt;&lt;span&gt;dwd_epay_chargeback_dt&lt;/span&gt;&lt;br&gt;&lt;span&gt;dwd_epay_manualreview_dt&lt;/span&gt;" style="rounded=0;whiteSpace=wrap;html=1;" vertex="1" parent="1">
                    <mxGeometry x="329" y="356" width="170" height="70" as="geometry"/>
                </mxCell>
                <mxCell id="14" value="ods_etrade_transaction_dt" style="rounded=0;whiteSpace=wrap;html=1;" vertex="1" parent="1">
                    <mxGeometry x="133" y="432" width="180" height="44" as="geometry"/>
                </mxCell>
                <mxCell id="15" value="ods_epay_transaction_dt" style="rounded=0;whiteSpace=wrap;html=1;" vertex="1" parent="1">
                    <mxGeometry x="330" y="432" width="170" height="44" as="geometry"/>
                </mxCell>
                <mxCell id="16" value="ods_entertainment_transaction_dt" style="rounded=0;whiteSpace=wrap;html=1;" vertex="1" parent="1">
                    <mxGeometry x="520" y="431" width="210" height="46" as="geometry"/>
                </mxCell>
                <mxCell id="17" value="&lt;span&gt;dwd_&lt;/span&gt;entertainment&lt;span&gt;_transaction_dt&lt;/span&gt;&lt;br&gt;&lt;span&gt;dwd_&lt;/span&gt;entertainment&lt;span&gt;_refund_dt&lt;/span&gt;&lt;br&gt;&lt;span&gt;dwd_&lt;/span&gt;entertainment&lt;span&gt;_chargeback_dt&lt;/span&gt;&lt;br&gt;&lt;span&gt;dwd_&lt;/span&gt;entertainment&lt;span&gt;_manualreview_dt&lt;/span&gt;" style="rounded=0;whiteSpace=wrap;html=1;" vertex="1" parent="1">
                    <mxGeometry x="520" y="356" width="210" height="70" as="geometry"/>
                </mxCell>
                <mxCell id="18" value="dws_etrade_transend_dt&lt;br&gt;dws_etrade_order_dt" style="rounded=0;whiteSpace=wrap;html=1;" vertex="1" parent="1">
                    <mxGeometry x="135" y="270" width="175" height="40" as="geometry"/>
                </mxCell>
                <mxCell id="19" value="dws_epay_transend_dt&lt;br&gt;dws_epay_order_dt" style="rounded=0;whiteSpace=wrap;html=1;" vertex="1" parent="1">
                    <mxGeometry x="330" y="270" width="170" height="40" as="geometry"/>
                </mxCell>
                <mxCell id="20" value="dws_entertainment_transend_dt&lt;br&gt;dws_entertainment_order_dt" style="rounded=0;whiteSpace=wrap;html=1;" vertex="1" parent="1">
                    <mxGeometry x="520" y="270" width="210" height="40" as="geometry"/>
                </mxCell>
                <mxCell id="21" value="dm_etrade_feature_dt&lt;br&gt;dm_etrade_modelres_dt" style="rounded=0;whiteSpace=wrap;html=1;" vertex="1" parent="1">
                    <mxGeometry x="135" y="210" width="175" height="40" as="geometry"/>
                </mxCell>
                <mxCell id="22" value="dm_epay_feature_dt&lt;br&gt;dm_epay_modelres_dt" style="rounded=0;whiteSpace=wrap;html=1;" vertex="1" parent="1">
                    <mxGeometry x="329" y="210" width="171" height="40" as="geometry"/>
                </mxCell>
                <mxCell id="23" value="dm_entertainment_feature_dt&lt;br&gt;dm_entertainment_modelres_dt" style="rounded=0;whiteSpace=wrap;html=1;" vertex="1" parent="1">
                    <mxGeometry x="520" y="210" width="210" height="40" as="geometry"/>
                </mxCell>
                <mxCell id="24" value="dwd_offline_chargeback_dt&lt;br&gt;" style="rounded=0;whiteSpace=wrap;html=1;" vertex="1" parent="1">
                    <mxGeometry x="337" y="320" width="150" height="30" as="geometry"/>
                </mxCell>
            </root>
        </mxGraphModel>
    </diagram>
</mxfile>